<svg id="Layer_1" data-name="Layer 1" xmlns="http://www.w3.org/2000/svg" viewBox="0 0 605 121"><defs><style>.cls-1{fill:#fff;}</style></defs><path class="cls-1" d="M60,27.77H52.3V90.9H196.22V27.77H60ZM188.55,83.23H60V35.44H188.55Z"/><path class="cls-1" d="M87.78,66.05h4.83a17.53,17.53,0,0,0,7.47-1.45,10.84,10.84,0,0,0,4.79-4.15,11.86,11.86,0,0,0,1.66-6.35v-.75a11.93,11.93,0,0,0-1.66-6.43,10.9,10.9,0,0,0-4.79-4.12,17.52,17.52,0,0,0-7.47-1.46H80.09V75.85h7.69ZM93,48a6.53,6.53,0,0,1,3.07.68,4.67,4.67,0,0,1,2,2,6.3,6.3,0,0,1,.71,3.07,6.11,6.11,0,0,1-.71,3,4.83,4.83,0,0,1-2,2,6.3,6.3,0,0,1-3.07.7h-5.2V48Z"/><path class="cls-1" d="M125.94,69.71a10,10,0,0,1-3.61.56,9.39,9.39,0,0,1-3.89-.68,5,5,0,0,1-2.23-1.8,4.43,4.43,0,0,1-.72-2.44H108a10.66,10.66,0,0,0,1.64,5.88,11.16,11.16,0,0,0,4.83,4,21.5,21.5,0,0,0,15.34.11,11.07,11.07,0,0,0,4.85-3.82,9.8,9.8,0,0,0,1.71-5.74,9,9,0,0,0-1.62-5.42,11,11,0,0,0-4.48-3.51,20.3,20.3,0,0,0-6.61-1.62L121.07,55a5.07,5.07,0,0,1-3.38-1.26,3.53,3.53,0,0,1-1-2.53,4.12,4.12,0,0,1,.56-2.09,3.92,3.92,0,0,1,1.71-1.52,6.39,6.39,0,0,1,2.84-.57,6.11,6.11,0,0,1,3,.66,4.46,4.46,0,0,1,2.41,4h7.51a11,11,0,0,0-1.55-5.88A10.28,10.28,0,0,0,128.69,42a17.88,17.88,0,0,0-13.58-.1,10.24,10.24,0,0,0-4.38,3.68,10.11,10.11,0,0,0-1.57,5.68,9.37,9.37,0,0,0,3,7.31,13.34,13.34,0,0,0,8.15,3.19l2.58.23a9.91,9.91,0,0,1,4.55,1.25,3,3,0,0,1,1.41,2.6,3.79,3.79,0,0,1-.75,2.32A4.9,4.9,0,0,1,125.94,69.71Z"/><path class="cls-1" d="M157.69,69.71a10,10,0,0,1-3.61.56,9.36,9.36,0,0,1-3.89-.68,4.92,4.92,0,0,1-2.23-1.8,4.36,4.36,0,0,1-.73-2.44h-7.45a10.58,10.58,0,0,0,1.64,5.88,11,11,0,0,0,4.83,4,21.48,21.48,0,0,0,15.33.11,11.07,11.07,0,0,0,4.85-3.82,9.8,9.8,0,0,0,1.71-5.74,9,9,0,0,0-1.61-5.42,11,11,0,0,0-4.48-3.51,20.36,20.36,0,0,0-6.61-1.62L152.81,55a5.1,5.1,0,0,1-3.38-1.26,3.57,3.57,0,0,1-1-2.53,4,4,0,0,1,.57-2.09,3.81,3.81,0,0,1,1.71-1.52,6.31,6.31,0,0,1,2.83-.57,6.11,6.11,0,0,1,3,.66,4.45,4.45,0,0,1,2.42,4h7.5a11,11,0,0,0-1.55-5.88A10.28,10.28,0,0,0,160.43,42a17.85,17.85,0,0,0-13.57-.1,10.21,10.21,0,0,0-4.39,3.68,10.11,10.11,0,0,0-1.57,5.68,9.4,9.4,0,0,0,3,7.31,13.35,13.35,0,0,0,8.16,3.19l2.58.23a9.86,9.86,0,0,1,4.54,1.25,3,3,0,0,1,1.41,2.6,3.79,3.79,0,0,1-.75,2.32A4.86,4.86,0,0,1,157.69,69.71Z"/><path class="cls-1" d="M390.12,116.3a2.07,2.07,0,0,0,0-2.63,1.86,1.86,0,0,0-1.47-.53,1.82,1.82,0,0,0-1.45.53,2.07,2.07,0,0,0,0,2.63,1.88,1.88,0,0,0,1.45.52A1.93,1.93,0,0,0,390.12,116.3Z"/><path class="cls-1" d="M229.43,46.8h3.74a13.64,13.64,0,0,0,5.8-1.13,8.37,8.37,0,0,0,3.71-3.22A9.16,9.16,0,0,0,244,37.53V37a9.29,9.29,0,0,0-1.29-5A8.43,8.43,0,0,0,239,28.77a13.49,13.49,0,0,0-5.8-1.13h-9.7V54.4h6Zm4-14a5,5,0,0,1,2.38.53,3.67,3.67,0,0,1,1.55,1.52,5,5,0,0,1,.55,2.39,4.74,4.74,0,0,1-.55,2.3,3.74,3.74,0,0,1-1.55,1.55,4.92,4.92,0,0,1-2.38.55h-4V32.8Z"/><polygon class="cls-1" points="254.4 54.4 264.8 54.4 264.8 49.16 254.4 49.16 254.4 27.86 248.44 27.86 248.44 54.4 253.68 54.4 254.4 54.4"/><path class="cls-1" d="M276,47.82H287l2.16,6.58h6.18l-9.09-26.54h-9.64L267.89,54.4h6Zm1.58-5,3.23-10.14h1.33l3.32,10.14Z"/><polygon class="cls-1" points="305.81 32.69 306.32 32.69 316.32 54.4 326.17 54.4 326.17 27.86 320.57 27.86 320.57 49.56 320.06 49.56 310.06 27.86 300.29 27.86 300.29 54.4 305.81 54.4 305.81 32.69"/><polygon class="cls-1" points="339.11 32.69 339.62 32.69 349.62 54.4 359.47 54.4 359.47 27.86 353.87 27.86 353.87 49.56 353.37 49.56 343.37 27.86 333.59 27.86 333.59 54.4 339.11 54.4 339.11 32.69"/><rect class="cls-1" x="366.96" y="27.86" width="5.96" height="26.54"/><polygon class="cls-1" points="385.94 32.69 386.45 32.69 396.45 54.4 406.3 54.4 406.3 27.86 400.7 27.86 400.7 49.56 400.19 49.56 390.19 27.86 380.41 27.86 380.41 54.4 385.94 54.4 385.94 32.69"/><path class="cls-1" d="M415.7,50.72a12.23,12.23,0,0,0,4.38,3.19,15.3,15.3,0,0,0,6.22,1.18,15.5,15.5,0,0,0,7-1.48A11.23,11.23,0,0,0,438,49.38V44.87h2.18V40.58H425.53v4.29h7v2.21a6.52,6.52,0,0,1-1.89,1.57,8.67,8.67,0,0,1-4.29,1,8.87,8.87,0,0,1-3.37-.62,6.7,6.7,0,0,1-2.52-1.76,7.63,7.63,0,0,1-1.55-2.73,11.05,11.05,0,0,1-.53-3.51,11.49,11.49,0,0,1,.49-3.4A7.67,7.67,0,0,1,420.28,35a6.58,6.58,0,0,1,2.33-1.74,7.43,7.43,0,0,1,3.1-.62,8.2,8.2,0,0,1,3.26.62A6.34,6.34,0,0,1,431.33,35a5,5,0,0,1,1.15,2.54h6a10.61,10.61,0,0,0-1.93-5.43,11.36,11.36,0,0,0-4.43-3.68,14.65,14.65,0,0,0-6.37-1.32,13.73,13.73,0,0,0-5.83,1.16,12.26,12.26,0,0,0-4.22,3.13,13.38,13.38,0,0,0-2.53,4.36,15,15,0,0,0-.83,4.91v.8a15.1,15.1,0,0,0,.83,4.87A13.45,13.45,0,0,0,415.7,50.72Z"/><path class="cls-1" d="M457.07,54a10.91,10.91,0,0,0,5.14,1.15,12.5,12.5,0,0,0,7.28-2.29l1.41,1.53h6.44l-4.59-5a15.7,15.7,0,0,0,1.63-3.31,20.18,20.18,0,0,0,1-6h1.84V35.82H466.91v4.25h3.38a15.26,15.26,0,0,1-1,5.58l-5.05-5.47a12.92,12.92,0,0,1-2-2.63,5.1,5.1,0,0,1-.6-2.39,2.93,2.93,0,0,1,.73-2.1,4,4,0,0,1,2.87-.77c.44,0,1,0,1.69.06s1.39.09,2.09.16,1.3.15,1.78.22v-4.8c-.7-.12-1.52-.22-2.45-.31s-1.85-.13-2.74-.13a13,13,0,0,0-5.33.93,6.59,6.59,0,0,0-3,2.56,7.47,7.47,0,0,0-1,3.89,8.51,8.51,0,0,0,.44,2.77c.09.27.22.55.35.84a9.27,9.27,0,0,0-3.15,2.76A7.89,7.89,0,0,0,452.4,46v.51a8.22,8.22,0,0,0,1.23,4.42A8.67,8.67,0,0,0,457.07,54Zm3.69-10.56,5.46,5.89a7.08,7.08,0,0,1-3.68,1,5.65,5.65,0,0,1-2.65-.56,3.64,3.64,0,0,1-1.58-1.6,5,5,0,0,1-.53-2.31,5.77,5.77,0,0,1,.67-2.85,5.63,5.63,0,0,1,.88-1.21C459.76,42.34,460.23,42.88,460.76,43.45Z"/><path class="cls-1" d="M226.63,90.76a14.29,14.29,0,0,0,6.07,1.15,14.51,14.51,0,0,0,5.82-1.06,8.65,8.65,0,0,0,3.76-3,7.64,7.64,0,0,0,1.33-4.45,6.93,6.93,0,0,0-1.26-4.2,8.48,8.48,0,0,0-3.47-2.73,15.7,15.7,0,0,0-5.13-1.25l-2-.19a3.91,3.91,0,0,1-2.62-1,2.74,2.74,0,0,1-.8-2,3.18,3.18,0,0,1,.44-1.62,3.05,3.05,0,0,1,1.32-1.18,5,5,0,0,1,2.2-.44,4.75,4.75,0,0,1,2.31.51,3.46,3.46,0,0,1,1.4,1.33,3.51,3.51,0,0,1,.47,1.8h5.82a8.48,8.48,0,0,0-1.2-4.56,7.91,7.91,0,0,0-3.43-3,13.91,13.91,0,0,0-10.53-.07,7.58,7.58,0,0,0-4.62,7.25,7.28,7.28,0,0,0,2.37,5.67,10.31,10.31,0,0,0,6.32,2.47l2,.19a7.57,7.57,0,0,1,3.53,1,2.32,2.32,0,0,1,1.09,2,2.91,2.91,0,0,1-.58,1.8,3.76,3.76,0,0,1-1.71,1.21,7.62,7.62,0,0,1-2.8.44,7.4,7.4,0,0,1-3-.53A3.81,3.81,0,0,1,228,85a3.38,3.38,0,0,1-.57-1.89h-5.78a8.37,8.37,0,0,0,1.27,4.57A8.58,8.58,0,0,0,226.63,90.76Z"/><polygon class="cls-1" points="253.68 91.22 259.64 91.22 259.64 69.88 267.13 69.88 267.13 64.68 246.22 64.68 246.22 69.88 253.68 69.88 253.68 91.22"/><path class="cls-1" d="M271.75,64.68V80.42a13.14,13.14,0,0,0,1.34,6.11,9.31,9.31,0,0,0,4,4,15.1,15.1,0,0,0,12.7,0,9.37,9.37,0,0,0,3.93-4A13,13,0,0,0,295,80.42V64.68h-6v16a6.7,6.7,0,0,1-.65,3,4.57,4.57,0,0,1-1.91,2,6.38,6.38,0,0,1-3.11.7,6.28,6.28,0,0,1-3.07-.7,4.67,4.67,0,0,1-1.93-2,6.45,6.45,0,0,1-.67-3v-16Z"/><path class="cls-1" d="M307.88,91.36h3.89a16.21,16.21,0,0,0,6.29-1.12,13.59,13.59,0,0,0,4.51-3A12.29,12.29,0,0,0,325.28,83a13.36,13.36,0,0,0,.89-4.75v-.8a13.79,13.79,0,0,0-.89-4.92,11.61,11.61,0,0,0-2.71-4.16,12.9,12.9,0,0,0-4.51-2.88,17.23,17.23,0,0,0-6.29-1.05h-9.85v26.9h6ZM312.1,70a10.06,10.06,0,0,1,3.35.53A7,7,0,0,1,318,72.09a6.64,6.64,0,0,1,1.6,2.48,10.06,10.06,0,0,1,0,6.56,6.75,6.75,0,0,1-1.6,2.51,7.28,7.28,0,0,1-2.54,1.6,9.57,9.57,0,0,1-3.35.56h-4.22V70Z"/><rect class="cls-1" x="331.84" y="64.68" width="5.96" height="26.54"/><path class="cls-1" d="M351.87,65.06a13.07,13.07,0,0,0-4.43,3.14,13.25,13.25,0,0,0-2.67,4.38,14,14,0,0,0-.89,4.89v.8a13.73,13.73,0,0,0,.85,4.62,14.16,14.16,0,0,0,2.6,4.45,12.79,12.79,0,0,0,4.42,3.31,16.23,16.23,0,0,0,12.54,0,12.88,12.88,0,0,0,4.42-3.31,14.61,14.61,0,0,0,2.62-4.45,13.53,13.53,0,0,0,.87-4.62v-.8a14,14,0,0,0-.91-4.89,13.64,13.64,0,0,0-2.69-4.38,13.12,13.12,0,0,0-4.44-3.14,16.59,16.59,0,0,0-12.29,0ZM364,71.82a7.76,7.76,0,0,1,1.64,2.69,10,10,0,0,1,.56,3.4,9.75,9.75,0,0,1-.54,3.27A7.9,7.9,0,0,1,364,83.87a7.65,7.65,0,0,1-2.58,1.82,8.42,8.42,0,0,1-3.4.66,8.25,8.25,0,0,1-3.38-.66,7.61,7.61,0,0,1-2.57-1.82,7.72,7.72,0,0,1-1.61-2.69,9.51,9.51,0,0,1-.55-3.27,10,10,0,0,1,.55-3.4,7.54,7.54,0,0,1,1.61-2.69,7.32,7.32,0,0,1,2.57-1.76,9.52,9.52,0,0,1,6.76,0A7.28,7.28,0,0,1,364,71.82Z"/><path class="cls-1" d="M402.3,90.85a8.59,8.59,0,0,0,3.76-3,7.57,7.57,0,0,0,1.33-4.45,7,7,0,0,0-1.25-4.2,8.57,8.57,0,0,0-3.48-2.73,15.58,15.58,0,0,0-5.12-1.25l-2-.19a3.94,3.94,0,0,1-2.62-1,2.74,2.74,0,0,1-.8-2,3.18,3.18,0,0,1,.44-1.62,3,3,0,0,1,1.33-1.18,5,5,0,0,1,2.2-.44,4.75,4.75,0,0,1,2.31.51,3.46,3.46,0,0,1,1.87,3.13H406A8.47,8.47,0,0,0,404.85,68a7.94,7.94,0,0,0-3.44-3,13.91,13.91,0,0,0-10.53-.07,7.59,7.59,0,0,0-4.61,7.25,7.27,7.27,0,0,0,2.36,5.67A10.34,10.34,0,0,0,395,80.27l2,.19a7.52,7.52,0,0,1,3.52,1,2.32,2.32,0,0,1,1.09,2,2.91,2.91,0,0,1-.58,1.8,3.76,3.76,0,0,1-1.71,1.21,7.58,7.58,0,0,1-2.8.44,7.35,7.35,0,0,1-3-.53,3.79,3.79,0,0,1-1.73-1.4,3.38,3.38,0,0,1-.57-1.89h-5.78a8.3,8.3,0,0,0,1.28,4.57,8.55,8.55,0,0,0,3.74,3.12,14.29,14.29,0,0,0,6.07,1.15A14.44,14.44,0,0,0,402.3,90.85Z"/><polygon class="cls-1" points="429.39 69.62 429.39 64.68 418.77 64.68 418.04 64.68 412.95 64.68 412.95 91.22 418.04 91.22 418.77 91.22 429.64 91.22 429.64 86.27 418.77 86.27 418.77 80.2 428.81 80.2 428.81 75.26 418.77 75.26 418.77 69.62 429.39 69.62"/><path class="cls-1" d="M436,91.22h6V82.71h4.35l5.8,8.51H459l-6.78-9.51a8,8,0,0,0,3.67-2.87A8.53,8.53,0,0,0,457.23,74v-.58a8.77,8.77,0,0,0-1.3-5,8,8,0,0,0-3.75-3,15,15,0,0,0-5.74-1H436Zm10.91-21.71a4.67,4.67,0,0,1,2.27.53,3.69,3.69,0,0,1,1.49,1.49,5,5,0,0,1,0,4.47,3.69,3.69,0,0,1-1.49,1.49,4.67,4.67,0,0,1-2.27.53h-5V69.51Z"/><polygon class="cls-1" points="480.61 64.68 474.87 86.38 473.62 86.38 467.41 64.68 461.27 64.68 469.34 91.22 479.05 91.22 486.57 64.68 480.61 64.68"/><rect class="cls-1" x="491.92" y="64.68" width="5.96" height="26.54"/><path class="cls-1" d="M522.22,85a7.88,7.88,0,0,1-4.67,1.35,8.28,8.28,0,0,1-3.24-.6A6.31,6.31,0,0,1,511.93,84a7.67,7.67,0,0,1-1.45-2.69,11.08,11.08,0,0,1-.49-3.4,11.3,11.3,0,0,1,.49-3.44,7.92,7.92,0,0,1,1.41-2.67,6.25,6.25,0,0,1,2.31-1.74,7.73,7.73,0,0,1,3.17-.62,8.06,8.06,0,0,1,3.21.62,6,6,0,0,1,2.35,1.74,5.72,5.72,0,0,1,1.16,2.73h6a11.05,11.05,0,0,0-6.36-9.31,14.44,14.44,0,0,0-6.36-1.34,13.93,13.93,0,0,0-6,1.18,12,12,0,0,0-4.18,3.14,13,13,0,0,0-2.46,4.38,15.65,15.65,0,0,0-.8,4.89v.8a14.86,14.86,0,0,0,.78,4.64,14,14,0,0,0,2.42,4.43,11.93,11.93,0,0,0,4.22,3.31,14,14,0,0,0,6.18,1.26,14.21,14.21,0,0,0,6.6-1.44,11.62,11.62,0,0,0,4.4-3.85,11.93,11.93,0,0,0,1.94-5.33h-6A5.5,5.5,0,0,1,522.22,85Z"/><polygon class="cls-1" points="541.73 80.2 551.76 80.2 551.76 75.26 541.73 75.26 541.73 69.62 552.34 69.62 552.34 64.68 541.73 64.68 541 64.68 535.91 64.68 535.91 91.22 541 91.22 541.73 91.22 552.6 91.22 552.6 86.27 541.73 86.27 541.73 80.2"/><path class="cls-1" d="M577.66,79.24a8.48,8.48,0,0,0-3.47-2.73,15.71,15.71,0,0,0-5.12-1.25l-2-.19a3.91,3.91,0,0,1-2.62-1,2.74,2.74,0,0,1-.8-2,3.18,3.18,0,0,1,.44-1.62,3,3,0,0,1,1.33-1.18,4.94,4.94,0,0,1,2.19-.44,4.73,4.73,0,0,1,2.31.51,3.46,3.46,0,0,1,1.4,1.33,3.51,3.51,0,0,1,.47,1.8h5.82a8.48,8.48,0,0,0-1.2-4.56,7.91,7.91,0,0,0-3.43-3,13.91,13.91,0,0,0-10.53-.07,7.58,7.58,0,0,0-4.62,7.25,7.28,7.28,0,0,0,2.37,5.67,10.31,10.31,0,0,0,6.32,2.47l2,.19a7.57,7.57,0,0,1,3.53,1,2.32,2.32,0,0,1,1.09,2,2.91,2.91,0,0,1-.58,1.8,3.76,3.76,0,0,1-1.71,1.21,7.62,7.62,0,0,1-2.8.44,7.4,7.4,0,0,1-3-.53,3.81,3.81,0,0,1-1.72-1.4,3.38,3.38,0,0,1-.57-1.89h-5.78a8.37,8.37,0,0,0,1.27,4.57,8.58,8.58,0,0,0,3.75,3.12A14.29,14.29,0,0,0,568,91.91a14.51,14.51,0,0,0,5.82-1.06,8.59,8.59,0,0,0,3.76-3,7.64,7.64,0,0,0,1.33-4.45A6.93,6.93,0,0,0,577.66,79.24Z"/><polygon class="cls-1" points="34.58 27.47 31.32 33.01 28 27.47 26.86 27.47 26.72 27.47 19.77 27.47 19.77 28.78 22.54 28.78 22.54 35.83 24.09 35.83 24.09 28.78 26.72 28.78 26.72 35.83 28.2 35.83 28.2 30.36 30.95 34.87 31.64 34.87 34.39 30.29 34.4 35.83 35.87 35.83 35.85 27.47 34.58 27.47"/><path class="cls-1" d="M60,27.77H52.3V90.9H196.22V27.77H60ZM188.55,83.23H60V35.44H188.55Z"/><path class="cls-1" d="M87.78,66.05h4.83a17.53,17.53,0,0,0,7.47-1.45,10.84,10.84,0,0,0,4.79-4.15,11.86,11.86,0,0,0,1.66-6.35v-.75a11.93,11.93,0,0,0-1.66-6.43,10.9,10.9,0,0,0-4.79-4.12,17.52,17.52,0,0,0-7.47-1.46H80.09V75.85h7.69ZM93,48a6.53,6.53,0,0,1,3.07.68,4.67,4.67,0,0,1,2,2,6.3,6.3,0,0,1,.71,3.07,6.11,6.11,0,0,1-.71,3,4.83,4.83,0,0,1-2,2,6.3,6.3,0,0,1-3.07.7h-5.2V48Z"/><path class="cls-1" d="M125.94,69.71a10,10,0,0,1-3.61.56,9.39,9.39,0,0,1-3.89-.68,5,5,0,0,1-2.23-1.8,4.43,4.43,0,0,1-.72-2.44H108a10.66,10.66,0,0,0,1.64,5.88,11.16,11.16,0,0,0,4.83,4,21.5,21.5,0,0,0,15.34.11,11.07,11.07,0,0,0,4.85-3.82,9.8,9.8,0,0,0,1.71-5.74,9,9,0,0,0-1.62-5.42,11,11,0,0,0-4.48-3.51,20.3,20.3,0,0,0-6.61-1.62L121.07,55a5.07,5.07,0,0,1-3.38-1.26,3.53,3.53,0,0,1-1-2.53,4.12,4.12,0,0,1,.56-2.09,3.92,3.92,0,0,1,1.71-1.52,6.39,6.39,0,0,1,2.84-.57,6.11,6.11,0,0,1,3,.66,4.46,4.46,0,0,1,2.41,4h7.51a11,11,0,0,0-1.55-5.88A10.28,10.28,0,0,0,128.69,42a17.88,17.88,0,0,0-13.58-.1,10.24,10.24,0,0,0-4.38,3.68,10.11,10.11,0,0,0-1.57,5.68,9.37,9.37,0,0,0,3,7.31,13.34,13.34,0,0,0,8.15,3.19l2.58.23a9.91,9.91,0,0,1,4.55,1.25,3,3,0,0,1,1.41,2.6,3.79,3.79,0,0,1-.75,2.32A4.9,4.9,0,0,1,125.94,69.71Z"/><path class="cls-1" d="M157.69,69.71a10,10,0,0,1-3.61.56,9.36,9.36,0,0,1-3.89-.68,4.92,4.92,0,0,1-2.23-1.8,4.36,4.36,0,0,1-.73-2.44h-7.45a10.58,10.58,0,0,0,1.64,5.88,11,11,0,0,0,4.83,4,21.48,21.48,0,0,0,15.33.11,11.07,11.07,0,0,0,4.85-3.82,9.8,9.8,0,0,0,1.71-5.74,9,9,0,0,0-1.61-5.42,11,11,0,0,0-4.48-3.51,20.36,20.36,0,0,0-6.61-1.62L152.81,55a5.1,5.1,0,0,1-3.38-1.26,3.57,3.57,0,0,1-1-2.53,4,4,0,0,1,.57-2.09,3.81,3.81,0,0,1,1.71-1.52,6.31,6.31,0,0,1,2.83-.57,6.11,6.11,0,0,1,3,.66,4.45,4.45,0,0,1,2.42,4h7.5a11,11,0,0,0-1.55-5.88A10.28,10.28,0,0,0,160.43,42a17.85,17.85,0,0,0-13.57-.1,10.21,10.21,0,0,0-4.39,3.68,10.11,10.11,0,0,0-1.57,5.68,9.4,9.4,0,0,0,3,7.31,13.35,13.35,0,0,0,8.16,3.19l2.58.23a9.86,9.86,0,0,1,4.54,1.25,3,3,0,0,1,1.41,2.6,3.79,3.79,0,0,1-.75,2.32A4.86,4.86,0,0,1,157.69,69.71Z"/><path class="cls-1" d="M390.12,116.3a2.07,2.07,0,0,0,0-2.63,1.86,1.86,0,0,0-1.47-.53,1.82,1.82,0,0,0-1.45.53,2.07,2.07,0,0,0,0,2.63,1.88,1.88,0,0,0,1.45.52A1.93,1.93,0,0,0,390.12,116.3Z"/><path class="cls-1" d="M229.43,46.8h3.74a13.64,13.64,0,0,0,5.8-1.13,8.37,8.37,0,0,0,3.71-3.22A9.16,9.16,0,0,0,244,37.53V37a9.29,9.29,0,0,0-1.29-5A8.43,8.43,0,0,0,239,28.77a13.49,13.49,0,0,0-5.8-1.13h-9.7V54.4h6Zm4-14a5,5,0,0,1,2.38.53,3.67,3.67,0,0,1,1.55,1.52,5,5,0,0,1,.55,2.39,4.74,4.74,0,0,1-.55,2.3,3.74,3.74,0,0,1-1.55,1.55,4.92,4.92,0,0,1-2.38.55h-4V32.8Z"/><polygon class="cls-1" points="254.4 54.4 264.8 54.4 264.8 49.16 254.4 49.16 254.4 27.86 248.44 27.86 248.44 54.4 253.68 54.4 254.4 54.4"/><path class="cls-1" d="M276,47.82H287l2.16,6.58h6.18l-9.09-26.54h-9.64L267.89,54.4h6Zm1.58-5,3.23-10.14h1.33l3.32,10.14Z"/><polygon class="cls-1" points="305.81 32.69 306.32 32.69 316.32 54.4 326.17 54.4 326.17 27.86 320.57 27.86 320.57 49.56 320.06 49.56 310.06 27.86 300.29 27.86 300.29 54.4 305.81 54.4 305.81 32.69"/><polygon class="cls-1" points="339.11 32.69 339.62 32.69 349.62 54.4 359.47 54.4 359.47 27.86 353.87 27.86 353.87 49.56 353.37 49.56 343.37 27.86 333.59 27.86 333.59 54.4 339.11 54.4 339.11 32.69"/><rect class="cls-1" x="366.96" y="27.86" width="5.96" height="26.54"/><polygon class="cls-1" points="385.94 32.69 386.45 32.69 396.45 54.4 406.3 54.4 406.3 27.86 400.7 27.86 400.7 49.56 400.19 49.56 390.19 27.86 380.41 27.86 380.41 54.4 385.94 54.4 385.94 32.69"/><path class="cls-1" d="M415.7,50.72a12.23,12.23,0,0,0,4.38,3.19,15.3,15.3,0,0,0,6.22,1.18,15.5,15.5,0,0,0,7-1.48A11.23,11.23,0,0,0,438,49.38V44.87h2.18V40.58H425.53v4.29h7v2.21a6.52,6.52,0,0,1-1.89,1.57,8.67,8.67,0,0,1-4.29,1,8.87,8.87,0,0,1-3.37-.62,6.7,6.7,0,0,1-2.52-1.76,7.63,7.63,0,0,1-1.55-2.73,11.05,11.05,0,0,1-.53-3.51,11.49,11.49,0,0,1,.49-3.4A7.67,7.67,0,0,1,420.28,35a6.58,6.58,0,0,1,2.33-1.74,7.43,7.43,0,0,1,3.1-.62,8.2,8.2,0,0,1,3.26.62A6.34,6.34,0,0,1,431.33,35a5,5,0,0,1,1.15,2.54h6a10.61,10.61,0,0,0-1.93-5.43,11.36,11.36,0,0,0-4.43-3.68,14.65,14.65,0,0,0-6.37-1.32,13.73,13.73,0,0,0-5.83,1.16,12.26,12.26,0,0,0-4.22,3.13,13.38,13.38,0,0,0-2.53,4.36,15,15,0,0,0-.83,4.91v.8a15.1,15.1,0,0,0,.83,4.87A13.45,13.45,0,0,0,415.7,50.72Z"/><path class="cls-1" d="M457.07,54a10.91,10.91,0,0,0,5.14,1.15,12.5,12.5,0,0,0,7.28-2.29l1.41,1.53h6.44l-4.59-5a15.7,15.7,0,0,0,1.63-3.31,20.18,20.18,0,0,0,1-6h1.84V35.82H466.91v4.25h3.38a15.26,15.26,0,0,1-1,5.58l-5.05-5.47a12.92,12.92,0,0,1-2-2.63,5.1,5.1,0,0,1-.6-2.39,2.93,2.93,0,0,1,.73-2.1,4,4,0,0,1,2.87-.77c.44,0,1,0,1.69.06s1.39.09,2.09.16,1.3.15,1.78.22v-4.8c-.7-.12-1.52-.22-2.45-.31s-1.85-.13-2.74-.13a13,13,0,0,0-5.33.93,6.59,6.59,0,0,0-3,2.56,7.47,7.47,0,0,0-1,3.89,8.51,8.51,0,0,0,.44,2.77c.09.27.22.55.35.84a9.27,9.27,0,0,0-3.15,2.76A7.89,7.89,0,0,0,452.4,46v.51a8.22,8.22,0,0,0,1.23,4.42A8.67,8.67,0,0,0,457.07,54Zm3.69-10.56,5.46,5.89a7.08,7.08,0,0,1-3.68,1,5.65,5.65,0,0,1-2.65-.56,3.64,3.64,0,0,1-1.58-1.6,5,5,0,0,1-.53-2.31,5.77,5.77,0,0,1,.67-2.85,5.63,5.63,0,0,1,.88-1.21C459.76,42.34,460.23,42.88,460.76,43.45Z"/><path class="cls-1" d="M226.63,90.76a14.29,14.29,0,0,0,6.07,1.15,14.51,14.51,0,0,0,5.82-1.06,8.65,8.65,0,0,0,3.76-3,7.64,7.64,0,0,0,1.33-4.45,6.93,6.93,0,0,0-1.26-4.2,8.48,8.48,0,0,0-3.47-2.73,15.7,15.7,0,0,0-5.13-1.25l-2-.19a3.91,3.91,0,0,1-2.62-1,2.74,2.74,0,0,1-.8-2,3.18,3.18,0,0,1,.44-1.62,3.05,3.05,0,0,1,1.32-1.18,5,5,0,0,1,2.2-.44,4.75,4.75,0,0,1,2.31.51,3.46,3.46,0,0,1,1.4,1.33,3.51,3.51,0,0,1,.47,1.8h5.82a8.48,8.48,0,0,0-1.2-4.56,7.91,7.91,0,0,0-3.43-3,13.91,13.91,0,0,0-10.53-.07,7.58,7.58,0,0,0-4.62,7.25,7.28,7.28,0,0,0,2.37,5.67,10.31,10.31,0,0,0,6.32,2.47l2,.19a7.57,7.57,0,0,1,3.53,1,2.32,2.32,0,0,1,1.09,2,2.91,2.91,0,0,1-.58,1.8,3.76,3.76,0,0,1-1.71,1.21,7.62,7.62,0,0,1-2.8.44,7.4,7.4,0,0,1-3-.53A3.81,3.81,0,0,1,228,85a3.38,3.38,0,0,1-.57-1.89h-5.78a8.37,8.37,0,0,0,1.27,4.57A8.58,8.58,0,0,0,226.63,90.76Z"/><polygon class="cls-1" points="253.68 91.22 259.64 91.22 259.64 69.88 267.13 69.88 267.13 64.68 246.22 64.68 246.22 69.88 253.68 69.88 253.68 91.22"/><path class="cls-1" d="M271.75,64.68V80.42a13.14,13.14,0,0,0,1.34,6.11,9.31,9.31,0,0,0,4,4,15.1,15.1,0,0,0,12.7,0,9.37,9.37,0,0,0,3.93-4A13,13,0,0,0,295,80.42V64.68h-6v16a6.7,6.7,0,0,1-.65,3,4.57,4.57,0,0,1-1.91,2,6.38,6.38,0,0,1-3.11.7,6.28,6.28,0,0,1-3.07-.7,4.67,4.67,0,0,1-1.93-2,6.45,6.45,0,0,1-.67-3v-16Z"/><path class="cls-1" d="M307.88,91.36h3.89a16.21,16.21,0,0,0,6.29-1.12,13.59,13.59,0,0,0,4.51-3A12.29,12.29,0,0,0,325.28,83a13.36,13.36,0,0,0,.89-4.75v-.8a13.79,13.79,0,0,0-.89-4.92,11.61,11.61,0,0,0-2.71-4.16,12.9,12.9,0,0,0-4.51-2.88,17.23,17.23,0,0,0-6.29-1.05h-9.85v26.9h6ZM312.1,70a10.06,10.06,0,0,1,3.35.53A7,7,0,0,1,318,72.09a6.64,6.64,0,0,1,1.6,2.48,10.06,10.06,0,0,1,0,6.56,6.75,6.75,0,0,1-1.6,2.51,7.28,7.28,0,0,1-2.54,1.6,9.57,9.57,0,0,1-3.35.56h-4.22V70Z"/><rect class="cls-1" x="331.84" y="64.68" width="5.96" height="26.54"/><path class="cls-1" d="M351.87,65.06a13.07,13.07,0,0,0-4.43,3.14,13.25,13.25,0,0,0-2.67,4.38,14,14,0,0,0-.89,4.89v.8a13.73,13.73,0,0,0,.85,4.62,14.16,14.16,0,0,0,2.6,4.45,12.79,12.79,0,0,0,4.42,3.31,16.23,16.23,0,0,0,12.54,0,12.88,12.88,0,0,0,4.42-3.31,14.61,14.61,0,0,0,2.62-4.45,13.53,13.53,0,0,0,.87-4.62v-.8a14,14,0,0,0-.91-4.89,13.64,13.64,0,0,0-2.69-4.38,13.12,13.12,0,0,0-4.44-3.14,16.59,16.59,0,0,0-12.29,0ZM364,71.82a7.76,7.76,0,0,1,1.64,2.69,10,10,0,0,1,.56,3.4,9.75,9.75,0,0,1-.54,3.27A7.9,7.9,0,0,1,364,83.87a7.65,7.65,0,0,1-2.58,1.82,8.42,8.42,0,0,1-3.4.66,8.25,8.25,0,0,1-3.38-.66,7.61,7.61,0,0,1-2.57-1.82,7.72,7.72,0,0,1-1.61-2.69,9.51,9.51,0,0,1-.55-3.27,10,10,0,0,1,.55-3.4,7.54,7.54,0,0,1,1.61-2.69,7.32,7.32,0,0,1,2.57-1.76,9.52,9.52,0,0,1,6.76,0A7.28,7.28,0,0,1,364,71.82Z"/><path class="cls-1" d="M402.3,90.85a8.59,8.59,0,0,0,3.76-3,7.57,7.57,0,0,0,1.33-4.45,7,7,0,0,0-1.25-4.2,8.57,8.57,0,0,0-3.48-2.73,15.58,15.58,0,0,0-5.12-1.25l-2-.19a3.94,3.94,0,0,1-2.62-1,2.74,2.74,0,0,1-.8-2,3.18,3.18,0,0,1,.44-1.62,3,3,0,0,1,1.33-1.18,5,5,0,0,1,2.2-.44,4.75,4.75,0,0,1,2.31.51,3.46,3.46,0,0,1,1.87,3.13H406A8.47,8.47,0,0,0,404.85,68a7.94,7.94,0,0,0-3.44-3,13.91,13.91,0,0,0-10.53-.07,7.59,7.59,0,0,0-4.61,7.25,7.27,7.27,0,0,0,2.36,5.67A10.34,10.34,0,0,0,395,80.27l2,.19a7.52,7.52,0,0,1,3.52,1,2.32,2.32,0,0,1,1.09,2,2.91,2.91,0,0,1-.58,1.8,3.76,3.76,0,0,1-1.71,1.21,7.58,7.58,0,0,1-2.8.44,7.35,7.35,0,0,1-3-.53,3.79,3.79,0,0,1-1.73-1.4,3.38,3.38,0,0,1-.57-1.89h-5.78a8.3,8.3,0,0,0,1.28,4.57,8.55,8.55,0,0,0,3.74,3.12,14.29,14.29,0,0,0,6.07,1.15A14.44,14.44,0,0,0,402.3,90.85Z"/><polygon class="cls-1" points="429.39 69.62 429.39 64.68 418.77 64.68 418.04 64.68 412.95 64.68 412.95 91.22 418.04 91.22 418.77 91.22 429.64 91.22 429.64 86.27 418.77 86.27 418.77 80.2 428.81 80.2 428.81 75.26 418.77 75.26 418.77 69.62 429.39 69.62"/><path class="cls-1" d="M436,91.22h6V82.71h4.35l5.8,8.51H459l-6.78-9.51a8,8,0,0,0,3.67-2.87A8.53,8.53,0,0,0,457.23,74v-.58a8.77,8.77,0,0,0-1.3-5,8,8,0,0,0-3.75-3,15,15,0,0,0-5.74-1H436Zm10.91-21.71a4.67,4.67,0,0,1,2.27.53,3.69,3.69,0,0,1,1.49,1.49,5,5,0,0,1,0,4.47,3.69,3.69,0,0,1-1.49,1.49,4.67,4.67,0,0,1-2.27.53h-5V69.51Z"/><polygon class="cls-1" points="480.61 64.68 474.87 86.38 473.62 86.38 467.41 64.68 461.27 64.68 469.34 91.22 479.05 91.22 486.57 64.68 480.61 64.68"/><rect class="cls-1" x="491.92" y="64.68" width="5.96" height="26.54"/><path class="cls-1" d="M522.22,85a7.88,7.88,0,0,1-4.67,1.35,8.28,8.28,0,0,1-3.24-.6A6.31,6.31,0,0,1,511.93,84a7.67,7.67,0,0,1-1.45-2.69,11.08,11.08,0,0,1-.49-3.4,11.3,11.3,0,0,1,.49-3.44,7.92,7.92,0,0,1,1.41-2.67,6.25,6.25,0,0,1,2.31-1.74,7.73,7.73,0,0,1,3.17-.62,8.06,8.06,0,0,1,3.21.62,6,6,0,0,1,2.35,1.74,5.72,5.72,0,0,1,1.16,2.73h6a11.05,11.05,0,0,0-6.36-9.31,14.44,14.44,0,0,0-6.36-1.34,13.93,13.93,0,0,0-6,1.18,12,12,0,0,0-4.18,3.14,13,13,0,0,0-2.46,4.38,15.65,15.65,0,0,0-.8,4.89v.8a14.86,14.86,0,0,0,.78,4.64,14,14,0,0,0,2.42,4.43,11.93,11.93,0,0,0,4.22,3.31,14,14,0,0,0,6.18,1.26,14.21,14.21,0,0,0,6.6-1.44,11.62,11.62,0,0,0,4.4-3.85,11.93,11.93,0,0,0,1.94-5.33h-6A5.5,5.5,0,0,1,522.22,85Z"/><polygon class="cls-1" points="541.73 80.2 551.76 80.2 551.76 75.26 541.73 75.26 541.73 69.62 552.34 69.62 552.34 64.68 541.73 64.68 541 64.68 535.91 64.68 535.91 91.22 541 91.22 541.73 91.22 552.6 91.22 552.6 86.27 541.73 86.27 541.73 80.2"/><path class="cls-1" d="M577.66,79.24a8.48,8.48,0,0,0-3.47-2.73,15.71,15.71,0,0,0-5.12-1.25l-2-.19a3.91,3.91,0,0,1-2.62-1,2.74,2.74,0,0,1-.8-2,3.18,3.18,0,0,1,.44-1.62,3,3,0,0,1,1.33-1.18,4.94,4.94,0,0,1,2.19-.44,4.73,4.73,0,0,1,2.31.51,3.46,3.46,0,0,1,1.4,1.33,3.51,3.51,0,0,1,.47,1.8h5.82a8.48,8.48,0,0,0-1.2-4.56,7.91,7.91,0,0,0-3.43-3,13.91,13.91,0,0,0-10.53-.07,7.58,7.58,0,0,0-4.62,7.25,7.28,7.28,0,0,0,2.37,5.67,10.31,10.31,0,0,0,6.32,2.47l2,.19a7.57,7.57,0,0,1,3.53,1,2.32,2.32,0,0,1,1.09,2,2.91,2.91,0,0,1-.58,1.8,3.76,3.76,0,0,1-1.71,1.21,7.62,7.62,0,0,1-2.8.44,7.4,7.4,0,0,1-3-.53,3.81,3.81,0,0,1-1.72-1.4,3.38,3.38,0,0,1-.57-1.89h-5.78a8.37,8.37,0,0,0,1.27,4.57,8.58,8.58,0,0,0,3.75,3.12A14.29,14.29,0,0,0,568,91.91a14.51,14.51,0,0,0,5.82-1.06,8.59,8.59,0,0,0,3.76-3,7.64,7.64,0,0,0,1.33-4.45A6.93,6.93,0,0,0,577.66,79.24Z"/><polygon class="cls-1" points="34.58 27.47 31.32 33.01 28 27.47 26.86 27.47 26.72 27.47 19.77 27.47 19.77 28.78 22.54 28.78 22.54 35.83 24.09 35.83 24.09 28.78 26.72 28.78 26.72 35.83 28.2 35.83 28.2 30.36 30.95 34.87 31.64 34.87 34.39 30.29 34.4 35.83 35.87 35.83 35.85 27.47 34.58 27.47"/></svg>